<?xml version="1.0" encoding="UTF-8"?>
<svg width="871px" height="71px" viewBox="0 0 871 71" version="1.1" xmlns="http://www.w3.org/2000/svg" xmlns:xlink="http://www.w3.org/1999/xlink">
    <title>comp_cap_it_all</title>
    <g id="comp_cap_it_all" stroke="none" stroke-width="1" fill="none" fill-rule="evenodd">
        <circle id="O-C" fill="#222" cx="727" cy="35" r="7"></circle>
        <circle id="O-C-2" fill="#222" cx="748" cy="35" r="7"></circle>
        <circle id="O-C-3" fill="#222" cx="727" cy="58" r="7"></circle>
        <circle id="O-C-4" fill="#222" cx="803" cy="58" r="7"></circle>
        <circle id="O-C-4" fill="#222" cx="858" cy="58" r="7"></circle>
        <circle id="O-C" fill="#222" cx="562" cy="35" r="7"></circle>
        <circle id="O-C-5" fill="#222" cx="562" cy="12" r="7"></circle>
        <circle id="O-C" fill="#222" cx="617" cy="35" r="7"></circle>
        <circle id="O-C-3" fill="#222" cx="617" cy="58" r="7"></circle>
        <circle id="O-C-5" fill="#222" cx="617" cy="12" r="7"></circle>
        <circle id="O-C" fill="#222" cx="672" cy="35" r="7"></circle>
        <circle id="O-C-3" fill="#222" cx="672" cy="58" r="7"></circle>
        <circle id="O-C-5" fill="#222" cx="672" cy="12" r="7"></circle>
        <circle id="O" fill="#222" cx="33" cy="58" r="7"></circle>
        <circle id="O-C-4" fill="#222" cx="88" cy="58" r="7"></circle>
        <circle id="O-C-4" fill="#222" cx="143" cy="58" r="7"></circle>
        <circle id="O-C-5" fill="#222" cx="177" cy="12" r="7"></circle>
        <circle id="O-C-6" fill="#222" cx="198" cy="12" r="7"></circle>
        <circle id="O-C-5" fill="#222" cx="232" cy="12" r="7"></circle>
        <circle id="O" fill="#222" cx="287" cy="35" r="7"></circle>
        <circle id="O" fill="#222" cx="287" cy="58" r="7"></circle>
        <circle id="O" fill="#222" cx="287" cy="12" r="7"></circle>
        <circle id="O" fill="#222" cx="308" cy="12" r="7"></circle>
        <circle id="O-C" fill="#222" cx="397" cy="35" r="7"></circle>
        <circle id="O-C-6" fill="#222" cx="418" cy="12" r="7"></circle>
        <circle id="O-C" fill="#222" cx="452" cy="35" r="7"></circle>
        <circle id="O-C-2" fill="#222" cx="473" cy="35" r="7"></circle>
        <circle id="O-C-3" fill="#222" cx="452" cy="58" r="7"></circle>
        <circle id="O-C-6" fill="#222" cx="473" cy="12" r="7"></circle>
    </g>
</svg>