<?xml version="1.0" encoding="UTF-8"?>
<svg width="211px" height="71px" viewBox="0 0 211 71" version="1.1" xmlns="http://www.w3.org/2000/svg" xmlns:xlink="http://www.w3.org/1999/xlink">
    <title>con_for</title>
    <g id="con_for" stroke="none" stroke-width="1" fill="none" fill-rule="evenodd">
<circle id="O" fill="#222" cx="12" cy="11" r="7"></circle>  
<circle id="O" fill="#222" cx="12" cy="34" r="7"></circle>
<circle id="O" fill="#222" cx="12" cy="57" r="7"></circle> 
<circle id="O" fill="#222" cx="33" cy="11" r="7"></circle> 
<circle id="O" fill="#222" cx="33" cy="34" r="7"></circle> 
<circle id="O" fill="#222" cx="33" cy="57" r="7"></circle> 

<circle id="O" fill="#222" cx="67" cy="11" r="7"></circle>  
<circle id="O" fill="#222" cx="67" cy="34" r="7"></circle>
<circle id="O" fill="#222" cx="67" cy="57" r="7"></circle> 
<circle id="O" fill="#222" cx="88" cy="11" r="7"></circle> 
<circle id="O" fill="#222" cx="88" cy="34" r="7"></circle> 
<circle id="O" fill="#222" cx="88" cy="57" r="7"></circle> 

<circle id="O" fill="#222" cx="122" cy="11" r="7"></circle>  
<circle id="O" fill="#222" cx="122" cy="34" r="7"></circle>
<circle id="O" fill="#222" cx="122" cy="57" r="7"></circle> 
<circle id="O" fill="#222" cx="143" cy="11" r="7"></circle> 
<circle id="O" fill="#222" cx="143" cy="34" r="7"></circle> 
<circle id="O" fill="#222" cx="143" cy="57" r="7"></circle> 

<circle id="O" fill="#222" cx="177" cy="11" r="7"></circle>  
<circle id="O" fill="#222" cx="177" cy="34" r="7"></circle>
<circle id="O" fill="#222" cx="177" cy="57" r="7"></circle> 
<circle id="O" fill="#222" cx="198" cy="11" r="7"></circle> 
<circle id="O" fill="#222" cx="198" cy="34" r="7"></circle> 
<circle id="O" fill="#222" cx="198" cy="57" r="7"></circle> 

    </g>
</svg>


