<?xml version="1.0" encoding="UTF-8"?>
<svg width="100px" height="100px" viewBox="0 0 100 100" version="1.1" xmlns="http://www.w3.org/2000/svg" xmlns:xlink="http://www.w3.org/1999/xlink">
    <!-- Generator: Sketch 64 (93537) - https://sketch.com -->
    <title>composer</title>
    <g id="composer" stroke="none" stroke-width="1" fill="none" fill-rule="evenodd">
        <g id="Group-6" transform="translate(10.000000, 10.000000)" fill="#000000">
            <path d="M71.7504,16.1872 C71.7504,11.79656 75.29728,8.24968 79.68792,8.24968 C75.29728,8.24968 71.7504,4.7028 71.7504,0.31216 C71.7504,4.7028 68.20352,8.24968 63.81288,8.24968 C68.20352,8.24968 71.7504,11.79656 71.7504,16.1872 Z" id="Fill-1"></path>
            <path d="M36.0312,20.156 C36.0312,15.76536 39.57808,12.21848 43.96872,12.21848 C39.57808,12.21848 36.0312,8.6716 36.0312,4.28096 C36.0312,8.6716 32.48432,12.21848 28.09368,12.21848 C32.48432,12.21848 36.0312,15.76536 36.0312,20.156 Z" id="Fill-2"></path>
            <path d="M67.7816,36.0312 C67.7816,40.42184 64.23472,43.96872 59.84408,43.96872 C64.23472,43.96872 67.7816,47.5156 67.7816,51.90624 C67.7816,47.5156 71.32848,43.96872 75.71912,43.96872 C71.32848,43.96872 67.7816,40.42184 67.7816,36.0312 Z" id="Fill-3"></path>
            <path d="M42.0624,27.828 C41.749904,27.515504 41.24992,27.515504 40.93744,27.828 L0.8902408,67.8752 C0.1089928,68.656448 0.1089928,69.90648 0.8902408,70.68768 L9.31184,79.1092784 C9.68684,79.4842786 10.18688,79.6874067 10.71808,79.6874067 C11.249328,79.6874067 11.74936,79.4842786 12.12432,79.1092784 L52.17152,39.06208 C52.484016,38.749584 52.484016,38.2496 52.17152,37.93712 L42.0624,27.828 Z" id="Fill-4"></path>
            <path d="M68.828,21.5784 C68.828,21.047152 68.624872,20.54712 68.249872,20.17216 L59.828272,11.75056 C59.047024,10.969312 57.796992,10.969312 57.015792,11.75056 L47.671792,21.09456 C47.359296,21.407056 47.359296,21.90704 47.671792,22.21952 L57.781392,32.32912 C58.093896,32.641616 58.593872,32.641616 58.906352,32.32912 L68.250352,22.98512 C68.625352,22.61012 68.82848,22.11008 68.82848,21.57888 L68.828,21.5784 Z" id="Fill-5"></path>
        </g>
    </g>
</svg>