<?xml version="1.0" encoding="UTF-8"?>
<svg width="500px" height="175px" viewBox="0 0 500 175" version="1.1" xmlns="http://www.w3.org/2000/svg" xmlns:xlink="http://www.w3.org/1999/xlink">
    <!-- Generator: Sketch 57 (83077) - https://sketch.com -->
    <title>letter-t</title>
    <desc>Created with Sketch.</desc>
    <g id="letter-t" stroke="none" stroke-width="1" fill="none" fill-rule="evenodd">
        <rect fill="#FFFFFF" x="0" y="0" width="500" height="175"></rect>
        <text id="t" font-family="Courier" font-size="90" font-weight="normal" fill="#40464D">
            <tspan x="222.995605" y="83.75">t</tspan>
        </text>
        <rect id="Rectangle-Copy-10" fill="#007AD7" x="58.75" y="108.75" width="47.5" height="33.75" rx="16.875"></rect>
        <rect id="Rectangle-Copy-11" fill="#007AD7" x="111.25" y="108.75" width="46.25" height="33.75" rx="16.875"></rect>
        <path id="Rectangle-Copy-12" d="M179.375,109.375 L193.125,109.375 C202.099627,109.375 209.375,116.650373 209.375,125.625 C209.375,134.599627 202.099627,141.875 193.125,141.875 L179.375,141.875 C170.400373,141.875 163.125,134.599627 163.125,125.625 C163.125,116.650373 170.400373,109.375 179.375,109.375 Z M179.375,108.125 C169.710017,108.125 161.875,115.960017 161.875,125.625 C161.875,135.289983 169.710017,143.125 179.375,143.125 L193.125,143.125 C202.789983,143.125 210.625,135.289983 210.625,125.625 C210.625,115.960017 202.789983,108.125 193.125,108.125 L179.375,108.125 Z" fill="#0091FF" fill-rule="nonzero"></path>
        <rect id="Rectangle-Copy-13" fill="#FFFFFF" x="215" y="108.75" width="72.5" height="33.75" rx="16.875"></rect>
        <rect id="Rectangle-Copy-14" fill="#007AD7" x="292.5" y="108.75" width="46.25" height="33.75" rx="16.875"></rect>
        <rect id="Rectangle-Copy-15" fill="#007AD7" x="343.75" y="108.75" width="46.25" height="33.75" rx="16.875"></rect>
        <path id="Rectangle-Copy-16" d="M411.875,109.375 L424.375,109.375 C433.349627,109.375 440.625,116.650373 440.625,125.625 C440.625,134.599627 433.349627,141.875 424.375,141.875 L411.875,141.875 C402.900373,141.875 395.625,134.599627 395.625,125.625 C395.625,116.650373 402.900373,109.375 411.875,109.375 Z M411.875,108.125 C402.210017,108.125 394.375,115.960017 394.375,125.625 C394.375,135.289983 402.210017,143.125 411.875,143.125 L424.375,143.125 C434.039983,143.125 441.875,135.289983 441.875,125.625 C441.875,115.960017 434.039983,108.125 424.375,108.125 L411.875,108.125 Z" fill="#0091FF" fill-rule="nonzero"></path>
        <rect id="Rectangle-Copy-9" fill="#FFFFFF" x="7.5" y="108.75" width="46.25" height="21.25" rx="10.625"></rect>
        <rect id="Rectangle-Copy-17" fill="#FFFFFF" x="446.25" y="108.75" width="47.5" height="21.25" rx="10.625"></rect>
    </g>
</svg>