<?xml version="1.0" encoding="UTF-8"?>
<svg width="500px" height="175px" viewBox="0 0 500 175" version="1.1" xmlns="http://www.w3.org/2000/svg" xmlns:xlink="http://www.w3.org/1999/xlink">
    <!-- Generator: Sketch 57 (83077) - https://sketch.com -->
    <title>letter-^</title>
    <desc>Created with Sketch.</desc>
    <g id="letter-^" stroke="none" stroke-width="1" fill="none" fill-rule="evenodd">
        <rect fill="#FFFFFF" x="0" y="0" width="500" height="175"></rect>
        <path id="Rectangle-Copy-10" d="M75.625,109.375 L89.375,109.375 C98.3496272,109.375 105.625,116.650373 105.625,125.625 C105.625,134.599627 98.3496272,141.875 89.375,141.875 L75.625,141.875 C66.6503728,141.875 59.375,134.599627 59.375,125.625 C59.375,116.650373 66.6503728,109.375 75.625,109.375 Z M75.625,108.125 C65.9600169,108.125 58.125,115.960017 58.125,125.625 C58.125,135.289983 65.9600169,143.125 75.625,143.125 L89.375,143.125 C99.0399831,143.125 106.875,135.289983 106.875,125.625 C106.875,115.960017 99.0399831,108.125 89.375,108.125 L75.625,108.125 Z" fill="#0091FF" fill-rule="nonzero"></path>
        <path id="Rectangle-Copy-11" d="M128.125,109.375 L140.625,109.375 C149.599627,109.375 156.875,116.650373 156.875,125.625 C156.875,134.599627 149.599627,141.875 140.625,141.875 L128.125,141.875 C119.150373,141.875 111.875,134.599627 111.875,125.625 C111.875,116.650373 119.150373,109.375 128.125,109.375 Z M128.125,108.125 C118.460017,108.125 110.625,115.960017 110.625,125.625 C110.625,135.289983 118.460017,143.125 128.125,143.125 L140.625,143.125 C150.289983,143.125 158.125,135.289983 158.125,125.625 C158.125,115.960017 150.289983,108.125 140.625,108.125 L128.125,108.125 Z" fill="#0091FF" fill-rule="nonzero"></path>
        <path id="Rectangle-Copy-12" d="M179.375,109.375 L193.125,109.375 C202.099627,109.375 209.375,116.650373 209.375,125.625 C209.375,134.599627 202.099627,141.875 193.125,141.875 L179.375,141.875 C170.400373,141.875 163.125,134.599627 163.125,125.625 C163.125,116.650373 170.400373,109.375 179.375,109.375 Z M179.375,108.125 C169.710017,108.125 161.875,115.960017 161.875,125.625 C161.875,135.289983 169.710017,143.125 179.375,143.125 L193.125,143.125 C202.789983,143.125 210.625,135.289983 210.625,125.625 C210.625,115.960017 202.789983,108.125 193.125,108.125 L179.375,108.125 Z" fill="#0091FF" fill-rule="nonzero"></path>
        <rect id="Rectangle-Copy-13" fill="#FFFFFF" x="215" y="108.75" width="72.5" height="33.75" rx="16.875"></rect>
        <path id="Rectangle-Copy-14" d="M309.375,109.375 L321.875,109.375 C330.849627,109.375 338.125,116.650373 338.125,125.625 C338.125,134.599627 330.849627,141.875 321.875,141.875 L309.375,141.875 C300.400373,141.875 293.125,134.599627 293.125,125.625 C293.125,116.650373 300.400373,109.375 309.375,109.375 Z M309.375,108.125 C299.710017,108.125 291.875,115.960017 291.875,125.625 C291.875,135.289983 299.710017,143.125 309.375,143.125 L321.875,143.125 C331.539983,143.125 339.375,135.289983 339.375,125.625 C339.375,115.960017 331.539983,108.125 321.875,108.125 L309.375,108.125 Z" fill="#0091FF" fill-rule="nonzero"></path>
        <path id="Rectangle-Copy-15" d="M360.625,109.375 L373.125,109.375 C382.099627,109.375 389.375,116.650373 389.375,125.625 C389.375,134.599627 382.099627,141.875 373.125,141.875 L360.625,141.875 C351.650373,141.875 344.375,134.599627 344.375,125.625 C344.375,116.650373 351.650373,109.375 360.625,109.375 Z M360.625,108.125 C350.960017,108.125 343.125,115.960017 343.125,125.625 C343.125,135.289983 350.960017,143.125 360.625,143.125 L373.125,143.125 C382.789983,143.125 390.625,135.289983 390.625,125.625 C390.625,115.960017 382.789983,108.125 373.125,108.125 L360.625,108.125 Z" fill="#0091FF" fill-rule="nonzero"></path>
        <rect id="Rectangle-Copy-16" fill="#007AD7" x="395" y="108.75" width="46.25" height="33.75" rx="16.875"></rect>
        <rect id="Rectangle-Copy-9" fill="#FFFFFF" x="7.5" y="108.75" width="46.25" height="21.25" rx="10.625"></rect>
        <rect id="Rectangle-Copy-17" fill="#FFFFFF" x="446.25" y="108.75" width="47.5" height="21.25" rx="10.625"></rect>
        <path id="Line" d="M247.885273,29.2792163 C249.032186,27.2402612 251.967814,27.2402612 253.114727,29.2792163 L253.114727,29.2792163 L268.864727,57.2792163 C269.677018,58.7232899 269.164857,60.5524352 267.720784,61.3647266 C266.27671,62.177018 264.447565,61.6648574 263.635273,60.2207837 L263.635273,60.2207837 L253.5,42.202 L253.5,87.5 C253.5,89.0976809 252.25108,90.4036609 250.676273,90.4949073 L250.5,90.5 C248.843146,90.5 247.5,89.1568542 247.5,87.5 L247.5,87.5 L247.5,42.201 L237.364727,60.2207837 C236.58252,61.6113731 234.857387,62.1378019 233.441182,61.4495507 L233.279216,61.3647266 C231.835143,60.5524352 231.322982,58.7232899 232.135273,57.2792163 L232.135273,57.2792163 Z" fill="#40464D" fill-rule="nonzero"></path>
    </g>
</svg>