<?xml version="1.0" encoding="UTF-8"?>
<svg width="500px" height="175px" viewBox="0 0 500 175" version="1.1" xmlns="http://www.w3.org/2000/svg" xmlns:xlink="http://www.w3.org/1999/xlink">
    <!-- Generator: Sketch 57 (83077) - https://sketch.com -->
    <title>letter-v</title>
    <desc>Created with Sketch.</desc>
    <g id="letter-v" stroke="none" stroke-width="1" fill="none" fill-rule="evenodd">
        <rect fill="#FFFFFF" x="0" y="0" width="500" height="175"></rect>
        <text id="v" font-family="Courier" font-size="90" font-weight="normal" fill="#40464D">
            <tspan x="222.995605" y="83.75">v</tspan>
        </text>
        <rect id="Rectangle-Copy-10" fill="#007AD7" x="58.75" y="108.75" width="47.5" height="33.75" rx="16.875"></rect>
        <rect id="Rectangle-Copy-11" fill="#007AD7" x="111.25" y="108.75" width="46.25" height="33.75" rx="16.875"></rect>
        <rect id="Rectangle-Copy-12" fill="#007AD7" x="162.5" y="108.75" width="47.5" height="33.75" rx="16.875"></rect>
        <rect id="Rectangle-Copy-13" fill="#FFFFFF" x="215" y="108.75" width="72.5" height="33.75" rx="16.875"></rect>
        <path id="Rectangle-Copy-14" d="M309.375,109.375 L321.875,109.375 C330.849627,109.375 338.125,116.650373 338.125,125.625 C338.125,134.599627 330.849627,141.875 321.875,141.875 L309.375,141.875 C300.400373,141.875 293.125,134.599627 293.125,125.625 C293.125,116.650373 300.400373,109.375 309.375,109.375 Z M309.375,108.125 C299.710017,108.125 291.875,115.960017 291.875,125.625 C291.875,135.289983 299.710017,143.125 309.375,143.125 L321.875,143.125 C331.539983,143.125 339.375,135.289983 339.375,125.625 C339.375,115.960017 331.539983,108.125 321.875,108.125 L309.375,108.125 Z" fill="#0091FF" fill-rule="nonzero"></path>
        <path id="Rectangle-Copy-15" d="M360.625,109.375 L373.125,109.375 C382.099627,109.375 389.375,116.650373 389.375,125.625 C389.375,134.599627 382.099627,141.875 373.125,141.875 L360.625,141.875 C351.650373,141.875 344.375,134.599627 344.375,125.625 C344.375,116.650373 351.650373,109.375 360.625,109.375 Z M360.625,108.125 C350.960017,108.125 343.125,115.960017 343.125,125.625 C343.125,135.289983 350.960017,143.125 360.625,143.125 L373.125,143.125 C382.789983,143.125 390.625,135.289983 390.625,125.625 C390.625,115.960017 382.789983,108.125 373.125,108.125 L360.625,108.125 Z" fill="#0091FF" fill-rule="nonzero"></path>
        <rect id="Rectangle-Copy-16" fill="#007AD7" x="395" y="108.75" width="46.25" height="33.75" rx="16.875"></rect>
        <rect id="Rectangle-Copy-9" fill="#FFFFFF" x="7.5" y="108.75" width="46.25" height="21.25" rx="10.625"></rect>
        <rect id="Rectangle-Copy-17" fill="#FFFFFF" x="446.25" y="108.75" width="47.5" height="21.25" rx="10.625"></rect>
    </g>
</svg>