<?xml version="1.0" encoding="UTF-8"?>
<svg width="500px" height="175px" viewBox="0 0 500 175" version="1.1" xmlns="http://www.w3.org/2000/svg" xmlns:xlink="http://www.w3.org/1999/xlink">
    <!-- Generator: Sketch 57 (83077) - https://sketch.com -->
    <title>letter-m</title>
    <g id="letter-m" stroke="none" stroke-width="1" fill="none" fill-rule="evenodd">
        <rect fill="#FFFFFF" x="0" y="0" width="500" height="175"></rect>
        <text id="m" font-family="Courier" font-size="90" font-weight="normal" fill="#40464D">
            <tspan x="222.995605" y="83.75">m</tspan>
        </text>
        <rect id="Rectangle-Copy-10" fill="#007AD7" x="58.75" y="108.75" width="47.5" height="33.75" rx="16.875"></rect>
        <path id="Rectangle-Copy-11" d="M128.125,109.375 L140.625,109.375 C149.599627,109.375 156.875,116.650373 156.875,125.625 C156.875,134.599627 149.599627,141.875 140.625,141.875 L128.125,141.875 C119.150373,141.875 111.875,134.599627 111.875,125.625 C111.875,116.650373 119.150373,109.375 128.125,109.375 Z M128.125,108.125 C118.460017,108.125 110.625,115.960017 110.625,125.625 C110.625,135.289983 118.460017,143.125 128.125,143.125 L140.625,143.125 C150.289983,143.125 158.125,135.289983 158.125,125.625 C158.125,115.960017 150.289983,108.125 140.625,108.125 L128.125,108.125 Z" fill="#0091FF" fill-rule="nonzero"></path>
        <rect id="Rectangle-Copy-12" fill="#007AD7" x="162.5" y="108.75" width="47.5" height="33.75" rx="16.875"></rect>
        <rect id="Rectangle-Copy-13" fill="#FFFFFF" x="215" y="108.75" width="72.5" height="33.75" rx="16.875"></rect>
        <rect id="Rectangle-Copy-14" fill="#007AD7" x="292.5" y="108.75" width="46.25" height="33.75" rx="16.875"></rect>
        <path id="Rectangle-Copy-15" d="M360.625,109.375 L373.125,109.375 C382.099627,109.375 389.375,116.650373 389.375,125.625 C389.375,134.599627 382.099627,141.875 373.125,141.875 L360.625,141.875 C351.650373,141.875 344.375,134.599627 344.375,125.625 C344.375,116.650373 351.650373,109.375 360.625,109.375 Z M360.625,108.125 C350.960017,108.125 343.125,115.960017 343.125,125.625 C343.125,135.289983 350.960017,143.125 360.625,143.125 L373.125,143.125 C382.789983,143.125 390.625,135.289983 390.625,125.625 C390.625,115.960017 382.789983,108.125 373.125,108.125 L360.625,108.125 Z" fill="#0091FF" fill-rule="nonzero"></path>
        <path id="Rectangle-Copy-16" d="M411.875,109.375 L424.375,109.375 C433.349627,109.375 440.625,116.650373 440.625,125.625 C440.625,134.599627 433.349627,141.875 424.375,141.875 L411.875,141.875 C402.900373,141.875 395.625,134.599627 395.625,125.625 C395.625,116.650373 402.900373,109.375 411.875,109.375 Z M411.875,108.125 C402.210017,108.125 394.375,115.960017 394.375,125.625 C394.375,135.289983 402.210017,143.125 411.875,143.125 L424.375,143.125 C434.039983,143.125 441.875,135.289983 441.875,125.625 C441.875,115.960017 434.039983,108.125 424.375,108.125 L411.875,108.125 Z" fill="#0091FF" fill-rule="nonzero"></path>
        <rect id="Rectangle-Copy-9" fill="#FFFFFF" x="7.5" y="108.75" width="46.25" height="21.25" rx="10.625"></rect>
        <rect id="Rectangle-Copy-17" fill="#FFFFFF" x="446.25" y="108.75" width="47.5" height="21.25" rx="10.625"></rect>
    </g>
</svg>