<?xml version="1.0" encoding="UTF-8"?>
<svg width="500px" height="175px" viewBox="0 0 500 175" version="1.1" xmlns="http://www.w3.org/2000/svg" xmlns:xlink="http://www.w3.org/1999/xlink">
    <!-- Generator: Sketch 57 (83077) - https://sketch.com -->
    <title>letter-y</title>
    <g id="letter-y" stroke="none" stroke-width="1" fill="none" fill-rule="evenodd">
        <rect fill="#FFFFFF" x="0" y="0" width="500" height="175"></rect>
        <text id="y" font-family="Courier" font-size="90" font-weight="normal" fill="#40464D">
            <tspan x="222.995605" y="83.75">y</tspan>
        </text>
        <rect id="Rectangle-Copy-10" fill="#007AD7" x="58.75" y="108.75" width="47.5" height="33.75" rx="16.875"></rect>
        <path id="Rectangle-Copy-11" d="M128.125,109.375 L140.625,109.375 C149.599627,109.375 156.875,116.650373 156.875,125.625 C156.875,134.599627 149.599627,141.875 140.625,141.875 L128.125,141.875 C119.150373,141.875 111.875,134.599627 111.875,125.625 C111.875,116.650373 119.150373,109.375 128.125,109.375 Z M128.125,108.125 C118.460017,108.125 110.625,115.960017 110.625,125.625 C110.625,135.289983 118.460017,143.125 128.125,143.125 L140.625,143.125 C150.289983,143.125 158.125,135.289983 158.125,125.625 C158.125,115.960017 150.289983,108.125 140.625,108.125 L128.125,108.125 Z" fill="#0091FF" fill-rule="nonzero"></path>
        <rect id="Rectangle-Copy-12" fill="#007AD7" x="162.5" y="108.75" width="47.5" height="33.75" rx="16.875"></rect>
        <rect id="Rectangle-Copy-13" fill="#FFFFFF" x="215" y="108.75" width="72.5" height="33.75" rx="16.875"></rect>
        <rect id="Rectangle-Copy-14" fill="#007AD7" x="292.5" y="108.75" width="46.25" height="33.75" rx="16.875"></rect>
        <rect id="Rectangle-Copy-15" fill="#007AD7" x="343.75" y="108.75" width="46.25" height="33.75" rx="16.875"></rect>
        <rect id="Rectangle-Copy-16" fill="#007AD7" x="395" y="108.75" width="46.25" height="33.75" rx="16.875"></rect>
        <rect id="Rectangle-Copy-9" fill="#FFFFFF" x="7.5" y="108.75" width="46.25" height="21.25" rx="10.625"></rect>
        <rect id="Rectangle-Copy-17" fill="#FFFFFF" x="446.25" y="108.75" width="47.5" height="21.25" rx="10.625"></rect>
    </g>
</svg>