<?xml version="1.0" encoding="UTF-8"?>
<svg width="100px" height="100px" viewBox="0 0 100 100" version="1.1" xmlns="http://www.w3.org/2000/svg" xmlns:xlink="http://www.w3.org/1999/xlink">
    <!-- Generator: Sketch 64 (93537) - https://sketch.com -->
    <title>quickstart</title>
    <desc>Created with Sketch.</desc>
    <g id="quickstart" stroke="none" stroke-width="1" fill="none" fill-rule="evenodd">
        <path d="M35.5379181,11.847307 C39.1043181,16.632507 43.3895181,19.374607 48.4479181,21.851307 C39.5104181,21.995837 32.4789181,26.031007 28.5069181,31.011507 C38.5069181,36.999807 47.5109181,34.999807 59.1709181,34.136507 L59.1709181,37.980307 C38.5109181,42.999807 29.7299181,52.007307 23.5379181,66.023307 C19.5067181,66.011587 16.5067181,67.011587 14.7254181,69.398307 C13.1785181,71.363107 12.6824181,73.968607 13.1942181,76.371007 C13.7020281,78.773307 15.1942181,80.949107 17.5692181,82.156207 C21.6395181,83.382807 24.9130181,82.964797 27.9482181,81.843707 C30.0459181,82.624957 32.1943181,83.507807 33.9794181,84.218707 C34.0106681,87.242107 35.7997181,88.968707 38.2294181,89.878907 C45.2372181,91.710907 52.2524181,91.187507 59.0774181,89.378907 C60.5540181,88.968747 61.9290181,88.503907 63.2024181,87.722707 C63.6867881,84.703207 62.8938281,82.304707 60.9212181,80.812507 C58.2064181,78.296907 54.0306181,78.976607 50.9524181,79 C50.2844481,78.984377 49.7844181,78.160167 50.0774181,77.562507 C52.9836181,71.789107 53.0852181,66.906507 51.3586181,64.121507 C50.4953381,62.727007 49.1906181,61.785607 47.3586181,61.371507 C45.5266181,60.957447 43.1398181,61.105887 40.2648181,62.059007 C39.7530981,62.324627 39.0382181,62.031667 38.8586181,61.484787 C38.6750281,60.937907 39.0734581,60.277787 39.6398681,60.180087 C42.3507681,59.324617 45.1710681,58.855887 47.7960681,59.430087 C50.0890681,59.949617 51.9405681,61.219187 53.0772681,63.055087 C55.1631681,66.422287 54.8780681,71.426187 52.4522681,76.965087 C55.1475681,76.804927 58.7881681,76.433837 61.6710681,78.808887 C65.8819681,76.160487 69.0929681,72.761987 72.3310681,69.523687 C74.1122681,71.554887 76.8037681,73.910387 79.2998681,73.554887 C81.0576681,73.265827 82.6201681,71.882987 83.5810681,69.929887 C84.5420081,67.972887 84.8622681,65.496287 84.2060681,63.300987 C82.6279681,60.047087 80.8622681,58.730687 78.0810681,57.672087 C78.9638781,54.566587 79.0888681,51.535387 78.1435681,48.699387 C84.5185681,44.996287 88.5225681,37.996387 86.5497681,32.910387 C83.5185681,25.988487 79.5185681,23.988487 71.7337681,22.219387 C65.5110681,13.992787 57.5617681,9.73538703 49.6007681,9.03538703 C44.7687681,8.75413703 39.2647681,10.191587 35.5347681,11.847887 L35.5379181,11.847307 Z M75.9479181,28.324307 C77.6041181,28.324307 78.9479181,29.648507 78.9479181,31.293107 C78.9479181,32.937707 77.6041181,34.293107 75.9479181,34.293107 C74.2917181,34.293107 72.9479181,32.937607 72.9479181,31.293107 C72.9479181,29.648607 74.2917181,28.324307 75.9479181,28.324307 Z" id="Fill-1" fill="#000000"></path>
    </g>
</svg>