<?xml version="1.0" encoding="UTF-8"?>
<svg width="100px" height="100px" viewBox="0 0 100 100" version="1.1" xmlns="http://www.w3.org/2000/svg" xmlns:xlink="http://www.w3.org/1999/xlink">
    <!-- Generator: Sketch 64 (93537) - https://sketch.com -->
    <title>slate</title>
    <desc>Created with Sketch.</desc>
    <g id="slate" stroke="none" stroke-width="1" fill="none" fill-rule="evenodd">
        <path d="M84.793,14.3751 C83.168,12.7618 80.543,12.7618 78.918,14.3751 L69.336,23.961 L69.336,13.168 C69.336,12.0625 68.89459,11.0039 68.1133,10.2227 C67.33201,9.4415 66.2735,9 65.168,9 L15.168,9 C12.8672,9 11,10.8672 11,13.168 L11,88.168 C11,89.2735 11.44141,90.3321 12.2227,91.1133 C13.00399,91.8945 14.0625,92.336 15.168,92.336 L65.168,92.336 C66.2735,92.336 67.3321,91.89459 68.1133,91.1133 C68.8945,90.33201 69.336,89.2735 69.336,88.168 L69.336,52.375 L93.129,28.582 L93.12509,28.58591 C94.74229,26.96091 94.74229,24.33591 93.12509,22.71091 L84.793,14.3751 Z M61.00004,84.0001 L19.336,84.0001 L19.336,17.3361 L61.00004,17.3361 L61.00004,32.2931 L37.211,56.0431 C36.75397,56.50013 36.41412,57.0548 36.211,57.6681 L32.043,70.1681 C31.38284,72.1759 32.33206,74.3634 34.25,75.2501 L34.58594,75.2501 C35.02735,75.47276 35.50782,75.61338 36.00004,75.66807 C36.4141,75.73057 36.83598,75.73057 37.25004,75.66807 L49.75004,71.50007 C50.36332,71.29695 50.91804,70.9571 51.37504,70.50007 L61.00004,60.71097 L61.00004,84.0001 Z M62.207,47.7071 L46.25,63.6641 L42.582,64.8711 L43.789,61.2031 L68.082,36.9101 L81.836,23.2111 L84.293,25.6681 L62.207,47.7071 Z" id="Fill-1" fill="#000000"></path>
    </g>
</svg>