<?xml version="1.0" encoding="UTF-8"?>
<svg width="871px" height="71px" viewBox="0 0 871 71" version="1.1" xmlns="http://www.w3.org/2000/svg" xmlns:xlink="http://www.w3.org/1999/xlink">
    <!-- Generator: Sketch 52.6 (67491) - http://www.bohemiancoding.com/sketch -->
    <title>comp_cap_it_all</title>
    <desc>Created with Sketch.</desc>
    <g id="comp_cap_it_all" stroke="none" stroke-width="1" fill="none" fill-rule="evenodd">
        <circle id="Oval-Copy" fill="#808080" cx="727.5" cy="35.5" r="7.5"></circle>
        <circle id="Oval-Copy-2" fill="#808080" cx="748.5" cy="35.5" r="7.5"></circle>
        <circle id="Oval-Copy-3" fill="#808080" cx="727.5" cy="58.5" r="7.5"></circle>
        <circle id="Oval-Copy-4" fill="#808080" cx="803.5" cy="58.5" r="7.5"></circle>
        <circle id="Oval-Copy-4" fill="#808080" cx="858.5" cy="58.5" r="7.5"></circle>
        <circle id="Oval-Copy" fill="#808080" cx="562.5" cy="35.5" r="7.5"></circle>
        <circle id="Oval-Copy-5" fill="#808080" cx="562.5" cy="12.5" r="7.5"></circle>
        <circle id="Oval-Copy" fill="#808080" cx="617.5" cy="35.5" r="7.5"></circle>
        <circle id="Oval-Copy-3" fill="#808080" cx="617.5" cy="58.5" r="7.5"></circle>
        <circle id="Oval-Copy-5" fill="#808080" cx="617.5" cy="12.5" r="7.5"></circle>
        <circle id="Oval-Copy" fill="#808080" cx="672.5" cy="35.5" r="7.5"></circle>
        <circle id="Oval-Copy-3" fill="#808080" cx="672.5" cy="58.5" r="7.5"></circle>
        <circle id="Oval-Copy-5" fill="#808080" cx="672.5" cy="12.5" r="7.5"></circle>
        <circle id="Oval" fill="#808080" cx="33.5" cy="58.5" r="7.5"></circle>
        <circle id="Oval-Copy-4" fill="#808080" cx="88.5" cy="58.5" r="7.5"></circle>
        <circle id="Oval-Copy-4" fill="#808080" cx="143.5" cy="58.5" r="7.5"></circle>
        <circle id="Oval-Copy-5" fill="#808080" cx="177.5" cy="12.5" r="7.5"></circle>
        <circle id="Oval-Copy-6" fill="#808080" cx="198.5" cy="12.5" r="7.5"></circle>
        <circle id="Oval-Copy-5" fill="#808080" cx="232.5" cy="12.5" r="7.5"></circle>
        <circle id="Oval" fill="#808080" cx="287.5" cy="35.5" r="7.5"></circle>
        <circle id="Oval" fill="#808080" cx="287.5" cy="58.5" r="7.5"></circle>
        <circle id="Oval" fill="#808080" cx="287.5" cy="12.5" r="7.5"></circle>
        <circle id="Oval" fill="#808080" cx="308.5" cy="12.5" r="7.5"></circle>
        <circle id="Oval-Copy" fill="#808080" cx="397.5" cy="35.5" r="7.5"></circle>
        <circle id="Oval-Copy-6" fill="#808080" cx="418.5" cy="12.5" r="7.5"></circle>
        <circle id="Oval-Copy" fill="#808080" cx="452.5" cy="35.5" r="7.5"></circle>
        <circle id="Oval-Copy-2" fill="#808080" cx="473.5" cy="35.5" r="7.5"></circle>
        <circle id="Oval-Copy-3" fill="#808080" cx="452.5" cy="58.5" r="7.5"></circle>
        <circle id="Oval-Copy-6" fill="#808080" cx="473.5" cy="12.5" r="7.5"></circle>
    </g>
</svg>