<?xml version="1.0" encoding="UTF-8"?>
<svg width="431px" height="71px" viewBox="0 0 431 71" version="1.1" xmlns="http://www.w3.org/2000/svg" xmlns:xlink="http://www.w3.org/1999/xlink">
    <title>comp_single_quotes_true</title>
    <g id="comp_single_quotes_true" stroke="none" stroke-width="1" fill="none" fill-rule="evenodd">
        <circle id="O-C" fill="#222" cx="122" cy="35" r="7"></circle>
        <circle id="O-C-2" fill="#222" cx="143" cy="35" r="7"></circle>
        <circle id="O-C-3" fill="#222" cx="122" cy="58" r="7"></circle>
        <circle id="O-C-6" fill="#222" cx="143" cy="12" r="7"></circle>
        <circle id="O-C" fill="#222" cx="177" cy="35" r="7"></circle>
        <circle id="O-C-2" fill="#222" cx="198" cy="35" r="7"></circle>
        <circle id="O-C-3" fill="#222" cx="177" cy="58" r="7"></circle>
        <circle id="O-C-5" fill="#222" cx="177" cy="12" r="7"></circle>
        <circle id="O-C-3" fill="#222" cx="232" cy="58" r="7"></circle>
        <circle id="O-C-4" fill="#222" cx="253" cy="58" r="7"></circle>
        <circle id="O-C-5" fill="#222" cx="232" cy="12" r="7"></circle>
        <circle id="O" fill="#222" cx="308" cy="35" r="7"></circle>
        <circle id="O" fill="#222" cx="287" cy="12" r="7"></circle>
        <circle id="O-C-4" fill="#222" cx="363" cy="58" r="7"></circle>
        <circle id="O-C-2" fill="#222" cx="418" cy="35" r="7"></circle>
        <circle id="O-C-3" fill="#222" cx="397" cy="58" r="7"></circle>
        <circle id="O-C-4" fill="#222" cx="418" cy="58" r="7"></circle>
        <circle id="O" fill="#222" cx="33" cy="57" r="7"></circle>
        <circle id="O-C" fill="#222" cx="67" cy="34" r="7"></circle>
        <circle id="O-C-3" fill="#222" cx="67" cy="57" r="7"></circle>
        <circle id="O-C-4" fill="#222" cx="88" cy="57" r="7"></circle>
    </g>
</svg>