<?xml version="1.0" encoding="UTF-8"?>
<svg width="541px" height="71px" viewBox="0 0 541 71" version="1.1" xmlns="http://www.w3.org/2000/svg" xmlns:xlink="http://www.w3.org/1999/xlink">
    <!-- Generator: Sketch 52.6 (67491) - http://www.bohemiancoding.com/sketch -->
    <title>comp_as_if</title>
    <desc>Created with Sketch.</desc>
    <g id="comp_as_if" stroke="none" stroke-width="1" fill="none" fill-rule="evenodd">
        <circle id="Oval" fill="#808080" cx="33.5" cy="59.5" r="7.5"></circle>
        <circle id="Oval" fill="#808080" cx="33.5" cy="13.5" r="7.5"></circle>
        <circle id="Oval-Copy" fill="#808080" cx="67.5" cy="36.5" r="7.5"></circle>
        <circle id="Oval-Copy-2" fill="#808080" cx="88.5" cy="36.5" r="7.5"></circle>
        <circle id="Oval-Copy-3" fill="#808080" cx="67.5" cy="59.5" r="7.5"></circle>
        <circle id="Oval-Copy-4" fill="#808080" cx="88.5" cy="59.5" r="7.5"></circle>
        <circle id="Oval-Copy-5" fill="#808080" cx="122.5" cy="13.5" r="7.5"></circle>
        <circle id="Oval-Copy" fill="#808080" cx="177.5" cy="36.5" r="7.5"></circle>
        <circle id="Oval-Copy-3" fill="#808080" cx="177.5" cy="59.5" r="7.5"></circle>
        <circle id="Oval-Copy-6" fill="#808080" cx="198.5" cy="13.5" r="7.5"></circle>
        <circle id="Oval" fill="#808080" cx="287.5" cy="36.5" r="7.5"></circle>
        <circle id="Oval" fill="#808080" cx="308.5" cy="13.5" r="7.5"></circle>
        <circle id="Oval-Copy" fill="#808080" cx="342.5" cy="36.5" r="7.5"></circle>
        <circle id="Oval-Copy-5" fill="#808080" cx="342.5" cy="13.5" r="7.5"></circle>
        <circle id="Oval-Copy-6" fill="#808080" cx="363.5" cy="13.5" r="7.5"></circle>
        <circle id="Oval-Copy" fill="#808080" cx="397.5" cy="36.5" r="7.5"></circle>
        <circle id="Oval-Copy-2" fill="#808080" cx="418.5" cy="36.5" r="7.5"></circle>
        <circle id="Oval-Copy-3" fill="#808080" cx="397.5" cy="59.5" r="7.5"></circle>
        <circle id="Oval-Copy-4" fill="#808080" cx="473.5" cy="59.5" r="7.5"></circle>
        <circle id="Oval-Copy-6" fill="#808080" cx="473.5" cy="13.5" r="7.5"></circle>
        <circle id="Oval-Copy-3" fill="#808080" cx="507.5" cy="59.5" r="7.5"></circle>
    </g>
</svg>