<?xml version="1.0" encoding="UTF-8"?>
<svg width="431px" height="71px" viewBox="0 0 431 71" version="1.1" xmlns="http://www.w3.org/2000/svg" xmlns:xlink="http://www.w3.org/1999/xlink">
    <!-- Generator: Sketch 52.6 (67491) - http://www.bohemiancoding.com/sketch -->
    <title>comp_single_quotes_true</title>
    <desc>Created with Sketch.</desc>
    <g id="comp_single_quotes_true" stroke="none" stroke-width="1" fill="none" fill-rule="evenodd">
        <circle id="Oval-Copy" fill="#808080" cx="122.5" cy="35.5" r="7.5"></circle>
        <circle id="Oval-Copy-2" fill="#808080" cx="143.5" cy="35.5" r="7.5"></circle>
        <circle id="Oval-Copy-3" fill="#808080" cx="122.5" cy="58.5" r="7.5"></circle>
        <circle id="Oval-Copy-6" fill="#808080" cx="143.5" cy="12.5" r="7.5"></circle>
        <circle id="Oval-Copy" fill="#808080" cx="177.5" cy="35.5" r="7.5"></circle>
        <circle id="Oval-Copy-2" fill="#808080" cx="198.5" cy="35.5" r="7.5"></circle>
        <circle id="Oval-Copy-3" fill="#808080" cx="177.5" cy="58.5" r="7.5"></circle>
        <circle id="Oval-Copy-5" fill="#808080" cx="177.5" cy="12.5" r="7.5"></circle>
        <circle id="Oval-Copy-3" fill="#808080" cx="232.5" cy="58.5" r="7.5"></circle>
        <circle id="Oval-Copy-4" fill="#808080" cx="253.5" cy="58.5" r="7.5"></circle>
        <circle id="Oval-Copy-5" fill="#808080" cx="232.5" cy="12.5" r="7.5"></circle>
        <circle id="Oval" fill="#808080" cx="308.5" cy="35.5" r="7.5"></circle>
        <circle id="Oval" fill="#808080" cx="287.5" cy="12.5" r="7.5"></circle>
        <circle id="Oval-Copy-4" fill="#808080" cx="363.5" cy="58.5" r="7.5"></circle>
        <circle id="Oval-Copy-2" fill="#808080" cx="418.5" cy="35.5" r="7.5"></circle>
        <circle id="Oval-Copy-3" fill="#808080" cx="397.5" cy="58.5" r="7.5"></circle>
        <circle id="Oval-Copy-4" fill="#808080" cx="418.5" cy="58.5" r="7.5"></circle>
        <circle id="Oval" fill="#808080" cx="33.5" cy="57.5" r="7.5"></circle>
        <circle id="Oval-Copy" fill="#808080" cx="67.5" cy="34.5" r="7.5"></circle>
        <circle id="Oval-Copy-3" fill="#808080" cx="67.5" cy="57.5" r="7.5"></circle>
        <circle id="Oval-Copy-4" fill="#808080" cx="88.5" cy="57.5" r="7.5"></circle>
    </g>
</svg>