<?xml version="1.0" encoding="UTF-8"?>
<svg width="541px" height="71px" viewBox="0 0 541 71" version="1.1" xmlns="http://www.w3.org/2000/svg" xmlns:xlink="http://www.w3.org/1999/xlink">
    <title>comp_brackets_edited</title>
    <g id="comp_brackets_edited" stroke="none" stroke-width="1" fill="none" fill-rule="evenodd">
        <circle id="O-C-2" fill="#222" cx="143" cy="36.5" r="7"></circle>
        <circle id="O-C-4" fill="#222" cx="143" cy="59.5" r="7"></circle>
        <circle id="O-C-5" fill="#222" cx="122" cy="13" r="7"></circle>
        <circle id="O-C-2" fill="#222" cx="198" cy="36.5" r="7"></circle>
        <circle id="O-C-5" fill="#222" cx="177" cy="13" r="7"></circle>
        <circle id="O-C-6" fill="#222" cx="198" cy="13" r="7"></circle>
        <circle id="O-C" fill="#222" cx="232" cy="36.5" r="7"></circle>
        <circle id="O-C-6" fill="#222" cx="253" cy="13" r="7"></circle>
        <circle id="O" fill="#222" cx="287" cy="36.5" r="7"></circle>
        <circle id="O" fill="#222" cx="308" cy="36.5" r="7"></circle>
        <circle id="O" fill="#222" cx="287" cy="59.5" r="7"></circle>
        <circle id="O" fill="#222" cx="308" cy="13" r="7"></circle>
        <circle id="O-C-2" fill="#222" cx="363" cy="36.5" r="7"></circle>
        <circle id="O-C-5" fill="#222" cx="342" cy="13" r="7"></circle>
        <circle id="O-C-2" fill="#222" cx="418" cy="36.5" r="7"></circle>
        <circle id="O-C-5" fill="#222" cx="397" cy="13" r="7"></circle>
        <circle id="O-C-6" fill="#222" cx="418" cy="13" r="7"></circle>
        <circle id="O-C-4" fill="#222" cx="473" cy="59.5" r="7"></circle>
        <circle id="O-C-6" fill="#222" cx="473" cy="13" r="7"></circle>
        <circle id="O-C-2" fill="#222" cx="528" cy="36.5" r="7"></circle>
        <circle id="O-C-3" fill="#222" cx="507" cy="59.5" r="7"></circle>
        <circle id="O-C-6" fill="#222" cx="528" cy="13" r="7"></circle>
        <circle id="O" fill="#222" cx="33" cy="58" r="7"></circle>
        <circle id="O" fill="#222" cx="33" cy="12" r="7"></circle>
        <circle id="O-C" fill="#222" cx="67" cy="35" r="7"></circle>
        <circle id="O-C-4" fill="#222" cx="88" cy="58" r="7"></circle>
        <circle id="O-C-5" fill="#222" cx="67" cy="12" r="7"></circle>
    </g>
</svg>