<?xml version="1.0" encoding="UTF-8"?>
<svg width="100px" height="100px" viewBox="0 0 100 100" version="1.1" xmlns="http://www.w3.org/2000/svg" xmlns:xlink="http://www.w3.org/1999/xlink">
    <!-- Generator: Sketch 64 (93537) - https://sketch.com -->
    <title>explainer</title>
    <g id="explainer" stroke="none" stroke-width="1" fill="none" fill-rule="evenodd">
        <path d="M76.1277027,22.1757839 L75.2570487,22.1757839 L75.2570487,11.7412914 C75.2570487,11.2782587 75.0744451,10.8380817 74.748363,10.5119412 C74.4222893,10.1858675 73.978815,10 73.5190128,10 L25.0345175,10 C21.1248384,10.0326057 17.7858008,12.8335908 17.0782587,16.6780752 L17,17.8258694 L17,82.1741323 C17,86.4946783 20.5020661,90 24.8258694,90 L76.1276777,90 C76.5874465,90 77.0308873,89.8141325 77.3570278,89.4880588 C77.6831016,89.1619767 77.8657135,88.7217747 77.8657135,88.2587086 L77.8657135,23.9137863 C77.8657135,23.4540176 77.6831099,23.0105767 77.3570278,22.6844362 C77.0309458,22.3582957 76.5874799,22.1757505 76.1276777,22.1757505 L76.1277027,22.1757839 Z M59.3181527,62.5380703 C57.5801837,64.5630296 53.3542142,69.1215672 50.4588512,69.1280941 C47.5632378,69.1378617 43.3209906,64.5793075 41.5795155,62.5706259 L41.5795155,62.5738898 C40.2719484,61.2695783 39.5382784,59.4989701 39.5382784,57.6534006 C39.528495,57.5262333 39.528495,57.4023216 39.5382784,57.2784099 C38.1231108,56.0295264 36.7894157,54.6893202 35.5471267,53.270897 C34.2200262,51.9633299 33.476506,50.1796995 33.476506,48.3177687 C33.476506,46.4558378 34.2199595,44.6722074 35.5471267,43.3646403 C37.9111653,41.0592853 41.5437043,40.6581834 44.3546731,42.3928969 C47.165475,40.6549278 50.7946749,41.0461795 53.1714019,43.3385123 C54.5116081,44.649335 55.2648115,46.4394765 55.2680671,48.3144296 C55.271331,49.1067999 55.1376359,49.8958813 54.8669902,50.6426571 C56.5038699,50.7861355 58.0397438,51.4936943 59.2135824,52.644744 C60.5472775,53.9392889 61.306992,55.7164081 61.3202814,57.5749999 C61.3363171,59.4336752 60.6059027,61.2205612 59.2917994,62.537895 L59.3181527,62.5380703 Z M71.7811105,22.1757839 L24.8258944,22.1757839 C23.6715891,22.1757839 22.5629451,21.7192707 21.7477191,20.9041114 C20.7727201,19.9226013 20.3195293,18.5368172 20.5216245,17.1672275 C21.0172629,15.0575401 22.8661298,13.5445387 25.0345008,13.4792605 L71.7811105,13.4792605 L71.7811105,22.1757839 Z M51.6592352,55.138763 L50.4429908,56.3387296 L49.2168962,55.138763 C47.7854508,53.7431288 45.4996291,53.7431288 44.0681002,55.138763 C43.3931221,55.7941827 43.0116287,56.6941702 43.0116287,57.6332745 C43.0116287,58.5756344 43.3931388,59.4755885 44.0681002,60.1310416 L44.1626618,60.2451699 C46.562595,63.0429495 49.5364254,65.5732722 50.4690186,65.6515726 C51.3396727,65.5733139 54.3656755,62.990777 56.7199474,60.2256365 L56.8145089,60.1212916 C57.4894871,59.4658719 57.8709804,58.5658844 57.8709804,57.6267801 C57.8709804,56.6844202 57.4894704,55.7844661 56.8145089,55.129013 C55.3830635,53.7268676 53.0874752,53.7301232 51.6592019,55.1387964 L51.6592352,55.138763 Z M50.1625116,51.5388631 L50.7005391,50.9290964 L50.7951007,50.8149681 L50.7983646,50.818232 C51.4733427,50.1628123 51.8516012,49.2628248 51.8516012,48.3204649 C51.8548361,47.378105 51.4733343,46.4748954 50.7983646,45.8161867 C49.357069,44.4270636 47.0745864,44.4270636 45.6332908,45.8161867 L44.4170464,47.0161534 L43.2008019,45.8161867 L43.197538,45.8161867 C41.7660926,44.4205525 39.4835265,44.4205525 38.0519976,45.8161867 C37.3737556,46.4716064 36.9922705,47.3748495 36.9922705,48.3172094 C36.9922705,49.2595692 37.3737806,50.1627789 38.0519976,50.818232 L38.1465591,50.9225769 C38.1465591,50.9225769 39.330248,52.2953388 40.7551823,53.6615895 C41.0095251,53.2963822 41.3029931,52.9572612 41.6258363,52.6507793 C43.9084024,50.4301524 47.3843405,49.9769615 50.1629207,51.5388798 L50.1625116,51.5388631 Z" id="Fill-1" fill="#000000"></path>
    </g>
</svg>