<?xml version="1.0" encoding="UTF-8"?>
<svg width="100px" height="100px" viewBox="0 0 100 100" version="1.1" xmlns="http://www.w3.org/2000/svg" xmlns:xlink="http://www.w3.org/1999/xlink">
    <!-- Generator: Sketch 64 (93537) - https://sketch.com -->
    <title>braillewriter</title>
    <g id="braillewriter" stroke="none" stroke-width="1" fill="none" fill-rule="evenodd">
        <path d="M13.4237346,57.4572442 L13.4237346,65.5928461 C13.4237346,67.0911854 12.2102066,68.3047135 10.7118673,68.3047135 C9.21352808,68.3047135 8,67.0911854 8,65.5928461 L8,57.4572442 C8,55.9589049 9.21352808,54.7453769 10.7118673,54.7453769 C12.2102066,54.7453769 13.4237346,55.9589049 13.4237346,57.4572442 Z M89.3560196,54.7453769 C87.8576803,54.7453769 86.6441523,55.9589049 86.6441523,57.4572442 L86.6441523,65.5928461 C86.6441523,67.0911854 87.8576803,68.3047135 89.3560196,68.3047135 C90.8543588,68.3047135 92.0678869,67.0911854 92.0678869,65.5928461 L92.0678869,57.4572442 C92.0678869,56.7386037 91.7831452,56.0470732 91.2746679,55.5386306 C90.7661906,55.0301533 90.0746774,54.7453769 89.3560543,54.7453769 L89.3560196,54.7453769 Z M77.1530505,22.202969 L77.1530505,46.7321344 C81.0649083,47.3931531 83.9293344,50.7796289 83.9327188,54.745724 L83.9327188,81.8643972 C83.9327188,86.3559437 80.2886634,90 75.7971169,90 L24.2716378,90 C19.7800913,90 16.1360359,86.3559437 16.1360359,81.8643972 L16.1360359,54.745724 C16.1394289,50.7796289 19.0038464,47.3931357 22.9157042,46.7321344 L22.9157042,18.135602 C22.9157042,13.6440554 26.5597596,10 31.0513061,10 L79.8649179,10 C84.3564644,10 88.0006142,13.6440554 88.0006142,18.135602 C88.0039129,18.8203463 87.9157707,19.5050733 87.7428881,20.1695458 C87.4344121,21.3695363 86.3496391,22.2068741 85.1124202,22.2034897 L77.1530505,22.202969 Z M28.3394388,46.6097749 L71.7293159,46.6097749 L71.7293159,22.202969 L36.2988778,22.202969 C35.4615921,22.1995759 34.6717575,21.8097526 34.1599305,21.1487686 C33.6480688,20.4843654 33.471793,19.6233541 33.6819649,18.8131783 C33.7362023,18.5928358 33.763321,18.3623314 33.763321,18.1352114 C33.763321,16.6368722 32.5497929,15.4233441 31.0514536,15.4233441 C29.5531144,15.4233441 28.3394388,16.6368722 28.3394388,18.1352114 L28.3394388,46.6097749 Z M60.8818466,58.8127439 C60.8818466,58.0941034 60.5971049,57.4025729 60.0886276,56.8941304 C59.5801503,56.3856531 58.8886372,56.1009113 58.170014,56.1009113 L55.4581467,56.1009113 C53.9598075,56.1009113 52.7462794,57.3144394 52.7462794,58.8127787 C52.7462794,60.3111179 53.9598075,61.524646 55.4581467,61.524646 L58.170014,61.524646 C58.8886545,61.524646 59.580185,61.2399042 60.0886276,60.731427 C60.5971049,60.2229497 60.8818466,59.5314365 60.8818466,58.8128134 L60.8818466,58.8127439 Z M58.1699793,65.5924122 L55.458112,65.5924122 C53.9597727,65.5924122 52.7462447,66.8059403 52.7462447,68.3042796 C52.7462447,69.8026188 53.9597727,71.0161469 55.458112,71.0161469 L58.1699793,71.0161469 C59.6683185,71.0161469 60.8818466,69.8026188 60.8818466,68.3042796 C60.8818466,66.8059403 59.6683185,65.5924122 58.1699793,65.5924122 Z M47.32251,58.8127439 C47.32251,58.0941034 47.0377683,57.4025729 46.529291,56.8941304 C46.0208137,56.3856531 45.3293006,56.1009113 44.6106774,56.1009113 L41.8988101,56.1009113 C40.4004709,56.1009113 39.1869428,57.3144394 39.1869428,58.8127787 C39.1869428,60.3111179 40.4004709,61.524646 41.8988101,61.524646 L44.6106774,61.524646 C45.3293179,61.524646 46.0208484,61.2399042 46.529291,60.731427 C47.0377683,60.2229497 47.32251,59.5314365 47.32251,58.8128134 L47.32251,58.8127439 Z M44.6106427,65.5924122 L41.8987754,65.5924122 C40.4004362,65.5924122 39.1869081,66.8059403 39.1869081,68.3042796 C39.1869081,69.8026188 40.4004362,71.0161469 41.8987754,71.0161469 L44.6106427,71.0161469 C46.1089819,71.0161469 47.32251,69.8026188 47.32251,68.3042796 C47.32251,66.8059403 46.1089819,65.5924122 44.6106427,65.5924122 Z M31.0513061,56.1004427 L28.3394388,56.1004427 C26.8410996,56.1004427 25.6275715,57.3139708 25.6275715,58.81231 C25.6275715,60.3106493 26.8410996,61.5241774 28.3394388,61.5241774 L31.0513061,61.5241774 C32.5496453,61.5241774 33.7631734,60.3106493 33.7631734,58.81231 C33.7631734,57.3139708 32.5496453,56.1004427 31.0513061,56.1004427 Z M33.7631734,68.3034118 C33.7631734,67.5847713 33.4784317,66.8932408 32.9699544,66.3847982 C32.4614771,65.8763209 31.769964,65.5915792 31.0513408,65.5915792 L28.3394735,65.5915792 C26.8411343,65.5915792 25.6276062,66.8051072 25.6276062,68.3034465 C25.6276062,69.8017857 26.8411343,71.0153138 28.3394735,71.0153138 L31.0513408,71.0153138 C31.7699813,71.0153138 32.4615118,70.7305721 32.9699544,70.2220948 C33.4784317,69.7136175 33.7631734,69.0221043 33.7631734,68.3034812 L33.7631734,68.3034118 Z M66.3055813,77.7953813 C66.3055813,77.0767408 66.0208395,76.3852103 65.5123622,75.8767677 C65.0038849,75.3682904 64.3123718,75.0835487 63.5937487,75.0835487 L36.4750755,75.0835487 C34.9767362,75.0835487 33.7632081,76.2970768 33.7632081,77.795416 C33.7632081,79.2937552 34.9767362,80.5072833 36.4750755,80.5072833 L63.5937487,80.5072833 C64.3123892,80.5072833 65.0039197,80.2225416 65.5123622,79.7140643 C66.0208395,79.205587 66.3055813,78.5140738 66.3055813,77.7954507 L66.3055813,77.7953813 Z M74.4411832,68.3034118 C74.4411832,67.5847713 74.1564415,66.8932408 73.6479642,66.3847982 C73.1394869,65.8763209 72.4479738,65.5915792 71.7293506,65.5915792 L69.0174833,65.5915792 C67.5191441,65.5915792 66.305616,66.8051072 66.305616,68.3034465 C66.305616,69.8017857 67.5191441,71.0153138 69.0174833,71.0153138 L71.7293506,71.0153138 C72.4479911,71.0153138 73.1395216,70.7305721 73.6479642,70.2220948 C74.1564415,69.7136175 74.4411832,69.0221043 74.4411832,68.3034812 L74.4411832,68.3034118 Z M74.4411832,58.8114422 C74.4411832,58.0928017 74.1564415,57.4012712 73.6479642,56.8928287 C73.1394869,56.3843514 72.4479738,56.0996096 71.7293506,56.0996096 L69.0174833,56.0996096 C67.5191441,56.0996096 66.305616,57.3131377 66.305616,58.811477 C66.305616,60.3098162 67.5191441,61.5233443 69.0174833,61.5233443 L71.7293506,61.5233443 C72.4479911,61.5233443 73.1395216,61.2386026 73.6479642,60.7301253 C74.1564415,60.221648 74.4411832,59.5301348 74.4411832,58.8115117 L74.4411832,58.8114422 Z M41.8987754,31.6927691 L58.1699793,31.6927691 C59.6683185,31.6927691 60.8818466,30.479241 60.8818466,28.9809017 C60.8818466,27.4825625 59.6683185,26.2690344 58.1699793,26.2690344 L41.8987754,26.2690344 C40.4004362,26.2690344 39.1869081,27.4825625 39.1869081,28.9809017 C39.1869081,30.479241 40.4004362,31.6927691 41.8987754,31.6927691 Z M59.5254791,37.1165037 L40.5424078,37.1165037 C39.0440686,37.1165037 37.8305405,38.3300318 37.8305405,39.828371 C37.8305405,41.3267103 39.0440686,42.5402383 40.5424078,42.5402383 L59.5254791,42.5402383 C61.0238183,42.5402383 62.2373464,41.3267103 62.2373464,39.828371 C62.2373464,38.3300318 61.0238183,37.1165037 59.5254791,37.1165037 Z" id="Fill-1" fill="#000000"></path>
    </g>
</svg>