<?xml version="1.0" encoding="UTF-8"?>
<svg width="100pt" height="100pt" version="1.1" viewBox="0 0 100 100" xmlns="http://www.w3.org/2000/svg">
 <path d="m74.5 14.398h-49c-8 0-14.5 6.5-14.5 14.5v30c0 8 6.5 14.5 14.5 14.5h15.199l8 11.398c0.30078 0.39844 0.80078 0.69922 1.3008 0.69922s1-0.30078 1.3008-0.69922l8-11.5h15.199c8 0 14.5-6.5 14.5-14.5v-30c0-7.8984-6.5-14.398-14.5-14.398zm-44.801 35.602c-3.3984 0-6.1016-2.6992-6.1016-6.1016 0-3.3984 2.6992-6.1016 6.1016-6.1016 3.3008 0 6.1016 2.6992 6.1016 6.1016 0 3.4023-2.6992 6.1016-6.1016 6.1016zm20 0c-3.3984 0-6.1016-2.6992-6.1016-6.1016 0-3.3984 2.6992-6.1016 6.1016-6.1016 3.3008 0 6.1016 2.6992 6.1016 6.1016 0 3.4023-2.6992 6.1016-6.1016 6.1016zm20-0.10156c-3.3984 0-6.1016-2.6992-6.1016-6.1016 0-3.3984 2.8008-6.1016 6.1016-6.1016s6 2.8008 6.1016 6.1016c0 3.4023-2.6992 6.1016-6.1016 6.1016z"/>
</svg>
