<?xml version="1.0" encoding="UTF-8"?>
<svg width="500px" height="175px" viewBox="0 0 500 175" version="1.1" xmlns="http://www.w3.org/2000/svg" xmlns:xlink="http://www.w3.org/1999/xlink">
    <!-- Generator: Sketch 57 (83077) - https://sketch.com -->
    <title>letter-q</title>
    <g id="letter-q" stroke="none" stroke-width="1" fill="none" fill-rule="evenodd">
        <rect fill="#FFFFFF" x="0" y="0" width="500" height="175"></rect>
        <text id="q" font-family="Courier" font-size="90" font-weight="normal" fill="#40464D">
            <tspan x="222.995605" y="83.75">q</tspan>
        </text>
        <rect id="Rectangle-Copy-10" fill="#007AD7" x="58.75" y="108.75" width="47.5" height="33.75" rx="16.875"></rect>
        <rect id="Rectangle-Copy-11" fill="#007AD7" x="111.25" y="108.75" width="46.25" height="33.75" rx="16.875"></rect>
        <rect id="Rectangle-Copy-12" fill="#007AD7" x="162.5" y="108.75" width="47.5" height="33.75" rx="16.875"></rect>
        <rect id="Rectangle-Copy-13" fill="#FFFFFF" x="215" y="108.75" width="72.5" height="33.75" rx="16.875"></rect>
        <rect id="Rectangle-Copy-14" fill="#007AD7" x="292.5" y="108.75" width="46.25" height="33.75" rx="16.875"></rect>
        <rect id="Rectangle-Copy-15" fill="#007AD7" x="343.75" y="108.75" width="46.25" height="33.75" rx="16.875"></rect>
        <path id="Rectangle-Copy-16" d="M411.875,109.375 L424.375,109.375 C433.349627,109.375 440.625,116.650373 440.625,125.625 C440.625,134.599627 433.349627,141.875 424.375,141.875 L411.875,141.875 C402.900373,141.875 395.625,134.599627 395.625,125.625 C395.625,116.650373 402.900373,109.375 411.875,109.375 Z M411.875,108.125 C402.210017,108.125 394.375,115.960017 394.375,125.625 C394.375,135.289983 402.210017,143.125 411.875,143.125 L424.375,143.125 C434.039983,143.125 441.875,135.289983 441.875,125.625 C441.875,115.960017 434.039983,108.125 424.375,108.125 L411.875,108.125 Z" fill="#0091FF" fill-rule="nonzero"></path>
        <rect id="Rectangle-Copy-9" fill="#FFFFFF" x="7.5" y="108.75" width="46.25" height="21.25" rx="10.625"></rect>
        <rect id="Rectangle-Copy-17" fill="#FFFFFF" x="446.25" y="108.75" width="47.5" height="21.25" rx="10.625"></rect>
    </g>
</svg>