<svg xmlns="http://www.w3.org/2000/svg" width="30" height="40"><rect width="100%" height="100%" fill="#cbdc38"/><path fill="#9b27b0" d="m1.624 19.09 6.597-1.595a.503.503 0 1 1 .238.98L2.145 20l6.314 1.526a.504.504 0 0 1-.238.98l-6.597-1.595 3.426 3.426a3.813 3.813 0 0 0 5.386 0l1.1-1.1a4.584 4.584 0 0 0 0-6.475l-1.1-1.099a3.814 3.814 0 0 0-5.386 0zm-2.535-.713-1.595-6.597a.504.504 0 1 1 .98-.237L0 17.856l1.526-6.313a.503.503 0 1 1 .98.237L.911 18.377l3.426-3.426a3.813 3.813 0 0 0 0-5.386l-1.1-1.099A4.55 4.55 0 0 0 0 7.125a4.55 4.55 0 0 0-3.238 1.341l-1.099 1.099a3.813 3.813 0 0 0 0 5.386zm-10.624-1.614a4.584 4.584 0 0 0 0 6.476l1.1 1.099a3.813 3.813 0 0 0 5.385 0l3.426-3.426-6.597 1.595a.5.5 0 0 1-.609-.371.504.504 0 0 1 .372-.609l6.313-1.526-6.313-1.526a.504.504 0 1 1 .237-.98l6.597 1.595-3.426-3.426a3.8 3.8 0 0 0-2.693-1.113c-.975 0-1.95.37-2.693 1.113zM.911 21.625l1.595 6.597a.504.504 0 1 1-.98.237L0 22.146l-1.526 6.313a.505.505 0 0 1-.98-.237l1.595-6.597-3.426 3.426a3.813 3.813 0 0 0 0 5.386l1.1 1.099a4.584 4.584 0 0 0 6.475 0l1.099-1.099a3.813 3.813 0 0 0 0-5.386zm30.713-2.535 6.597-1.595a.503.503 0 1 1 .238.98L32.145 20l6.314 1.526a.504.504 0 0 1-.238.98l-6.597-1.595 3.426 3.426a3.813 3.813 0 0 0 5.386 0l1.1-1.1a4.584 4.584 0 0 0 0-6.475l-1.1-1.099a3.814 3.814 0 0 0-5.386 0zm-2.535-.713-1.595-6.597a.504.504 0 1 1 .98-.237L30 17.856l1.526-6.313a.503.503 0 1 1 .98.237l-1.595 6.597 3.426-3.426a3.813 3.813 0 0 0 0-5.386l-1.1-1.099A4.55 4.55 0 0 0 30 7.125a4.55 4.55 0 0 0-3.238 1.341l-1.099 1.099a3.813 3.813 0 0 0 0 5.386zm-10.624-1.614a4.584 4.584 0 0 0 0 6.476l1.1 1.099a3.813 3.813 0 0 0 5.385 0l3.426-3.426-6.597 1.595a.5.5 0 0 1-.609-.371.504.504 0 0 1 .372-.609l6.313-1.526-6.313-1.526a.504.504 0 1 1 .237-.98l6.597 1.595-3.426-3.426a3.8 3.8 0 0 0-2.693-1.113c-.975 0-1.95.37-2.693 1.113zm12.446 4.862 1.595 6.597a.504.504 0 1 1-.98.237L30 22.146l-1.526 6.313a.505.505 0 0 1-.98-.237l1.595-6.597-3.426 3.426a3.813 3.813 0 0 0 0 5.386l1.1 1.099a4.584 4.584 0 0 0 6.475 0l1.099-1.099a3.813 3.813 0 0 0 0-5.386zM16.624 39.09l6.597-1.595a.503.503 0 1 1 .238.98L17.145 40l6.314 1.526a.504.504 0 0 1-.238.98l-6.597-1.595 3.426 3.426a3.813 3.813 0 0 0 5.386 0l1.1-1.1a4.584 4.584 0 0 0 0-6.475l-1.1-1.099a3.814 3.814 0 0 0-5.386 0zm-2.535-.713-1.595-6.597a.504.504 0 1 1 .98-.237L15 37.856l1.526-6.313a.503.503 0 1 1 .98.237l-1.595 6.597 3.426-3.426a3.813 3.813 0 0 0 0-5.386l-1.1-1.099A4.55 4.55 0 0 0 15 27.125a4.55 4.55 0 0 0-3.238 1.341l-1.099 1.099a3.813 3.813 0 0 0 0 5.386zM3.465 36.763a4.584 4.584 0 0 0 0 6.476l1.1 1.099a3.813 3.813 0 0 0 5.385 0l3.426-3.426-6.597 1.595a.5.5 0 0 1-.609-.371.504.504 0 0 1 .372-.609l6.313-1.526-6.313-1.526a.504.504 0 1 1 .237-.98l6.597 1.595-3.426-3.426a3.8 3.8 0 0 0-2.693-1.113c-.975 0-1.95.37-2.693 1.113zm12.446 4.862 1.595 6.597a.504.504 0 1 1-.98.237L15 42.146l-1.526 6.313a.505.505 0 0 1-.98-.237l1.595-6.597-3.426 3.426a3.813 3.813 0 0 0 0 5.386l1.1 1.1a4.584 4.584 0 0 0 6.475 0l1.099-1.1a3.813 3.813 0 0 0 0-5.386zM16.624-.91l6.597-1.595a.503.503 0 1 1 .238.98L17.145 0l6.314 1.526a.504.504 0 0 1-.238.98L16.624.912l3.426 3.426a3.813 3.813 0 0 0 5.386 0l1.1-1.1a4.584 4.584 0 0 0 0-6.475l-1.1-1.099a3.814 3.814 0 0 0-5.386 0zm-2.535-.713L12.494-8.22a.504.504 0 1 1 .98-.237L15-2.144l1.526-6.313a.503.503 0 1 1 .98.237l-1.595 6.597 3.426-3.426a3.813 3.813 0 0 0 0-5.386l-1.1-1.099A4.55 4.55 0 0 0 15-12.875a4.55 4.55 0 0 0-3.238 1.341l-1.099 1.099a3.813 3.813 0 0 0 0 5.386zM3.465-3.237a4.584 4.584 0 0 0 0 6.476l1.1 1.099a3.813 3.813 0 0 0 5.385 0L13.376.912 6.779 2.507a.5.5 0 0 1-.609-.371.504.504 0 0 1 .372-.609L12.855.001 6.542-1.525a.504.504 0 1 1 .237-.98L13.376-.91 9.95-4.336a3.8 3.8 0 0 0-2.693-1.113c-.975 0-1.95.37-2.693 1.113zm12.446 4.862 1.595 6.597a.504.504 0 1 1-.98.237L15 2.146 13.474 8.46a.505.505 0 0 1-.98-.237l1.595-6.597-3.426 3.426a3.813 3.813 0 0 0 0 5.386l1.1 1.099a4.584 4.584 0 0 0 6.475 0l1.099-1.099a3.813 3.813 0 0 0 0-5.386z"/></svg>