<svg width="196" height="37" viewBox="0 0 196 37" fill="none" xmlns="http://www.w3.org/2000/svg">
<path d="M42.124 26C41.8453 26 41.6107 25.9047 41.42 25.714C41.2293 25.5233 41.134 25.2887 41.134 25.01V11.656C41.134 11.3773 41.2293 11.1427 41.42 10.952C41.6107 10.7467 41.8453 10.644 42.124 10.644H47.316C48.8853 10.644 50.0953 11.0033 50.946 11.722C51.8113 12.4407 52.244 13.4087 52.244 14.626C52.244 15.4767 52.0387 16.188 51.628 16.76C51.232 17.3173 50.7187 17.7353 50.088 18.014C50.968 18.2927 51.6867 18.74 52.244 19.356C52.816 19.972 53.102 20.7493 53.102 21.688C53.102 23.0373 52.6473 24.0933 51.738 24.856C50.8287 25.6187 49.3987 26 47.448 26H42.124ZM46.788 17.288C48.0933 17.288 49.01 17.068 49.538 16.628C50.066 16.188 50.33 15.572 50.33 14.78C50.33 14.0907 50.044 13.5407 49.472 13.13C48.9147 12.7193 48.1447 12.514 47.162 12.514H43.136V17.288H46.788ZM47.25 24.13C48.6727 24.13 49.6773 23.91 50.264 23.47C50.8653 23.03 51.166 22.4067 51.166 21.6C51.166 19.928 49.868 19.092 47.272 19.092H43.136V24.13H47.25Z" fill="black"/>
<path d="M56.6115 26.11C56.3328 26.11 56.0982 26.0147 55.9075 25.824C55.7168 25.6333 55.6215 25.3987 55.6215 25.12V15.682C55.6215 15.4033 55.7168 15.1687 55.9075 14.978C56.0982 14.7727 56.3328 14.67 56.6115 14.67C56.8902 14.67 57.1248 14.7727 57.3155 14.978C57.5208 15.1687 57.6235 15.4033 57.6235 15.682V16.628C58.6502 15.2493 59.8015 14.56 61.0775 14.56H61.1875C61.4662 14.56 61.6935 14.6553 61.8695 14.846C62.0602 15.0367 62.1555 15.2713 62.1555 15.55C62.1555 15.8287 62.0602 16.056 61.8695 16.232C61.6788 16.408 61.4368 16.496 61.1435 16.496H61.0335C60.3295 16.496 59.6842 16.672 59.0975 17.024C58.5108 17.3613 58.0195 17.8307 57.6235 18.432V25.12C57.6235 25.3987 57.5208 25.6333 57.3155 25.824C57.1248 26.0147 56.8902 26.11 56.6115 26.11Z" fill="black"/>
<path d="M66.6834 26.22C66.0381 26.22 65.4367 26.088 64.8794 25.824C64.3367 25.56 63.9041 25.1787 63.5814 24.68C63.2587 24.1667 63.0974 23.58 63.0974 22.92C63.0974 21.8347 63.5227 20.9693 64.3734 20.324C65.2387 19.6787 66.5001 19.356 68.1574 19.356H70.8194V19.18C70.8194 18.212 70.5774 17.5153 70.0934 17.09C69.6241 16.6647 68.8834 16.452 67.8714 16.452C67.3141 16.452 66.8154 16.496 66.3754 16.584C65.9501 16.672 65.4734 16.804 64.9454 16.98C64.8281 17.0093 64.7327 17.024 64.6594 17.024C64.4394 17.024 64.2487 16.9433 64.0874 16.782C63.9261 16.6207 63.8454 16.4227 63.8454 16.188C63.8454 15.792 64.0361 15.5133 64.4174 15.352C65.6641 14.824 66.9327 14.56 68.2234 14.56C69.2354 14.56 70.0861 14.7653 70.7754 15.176C71.4794 15.5867 71.9927 16.122 72.3154 16.782C72.6527 17.4273 72.8214 18.1313 72.8214 18.894V25.12C72.8214 25.3987 72.7187 25.6333 72.5134 25.824C72.3227 26.0147 72.0881 26.11 71.8094 26.11C71.5307 26.11 71.2961 26.0147 71.1054 25.824C70.9147 25.6333 70.8194 25.3987 70.8194 25.12V24.548C69.7341 25.6627 68.3554 26.22 66.6834 26.22ZM67.4314 24.46C68.0767 24.46 68.7001 24.306 69.3014 23.998C69.9027 23.6753 70.4087 23.2793 70.8194 22.81V20.962H68.4214C66.2067 20.962 65.0994 21.5413 65.0994 22.7C65.0994 23.228 65.2754 23.6533 65.6274 23.976C65.9941 24.2987 66.5954 24.46 67.4314 24.46Z" fill="black"/>
<path d="M76.9029 12.492C76.5949 12.492 76.3309 12.382 76.1109 12.162C75.8909 11.942 75.7809 11.678 75.7809 11.37V11.282C75.7809 10.974 75.8909 10.71 76.1109 10.49C76.3309 10.27 76.5949 10.16 76.9029 10.16H77.0349C77.3429 10.16 77.6069 10.27 77.8269 10.49C78.0469 10.71 78.1569 10.974 78.1569 11.282V11.37C78.1569 11.678 78.0469 11.942 77.8269 12.162C77.6069 12.382 77.3429 12.492 77.0349 12.492H76.9029ZM76.9469 26.11C76.6682 26.11 76.4336 26.0147 76.2429 25.824C76.0522 25.6333 75.9569 25.3987 75.9569 25.12V15.682C75.9569 15.4033 76.0522 15.1687 76.2429 14.978C76.4336 14.7727 76.6682 14.67 76.9469 14.67C77.2402 14.67 77.4822 14.7653 77.6729 14.956C77.8636 15.1467 77.9589 15.3887 77.9589 15.682V25.12C77.9589 25.3987 77.8562 25.6333 77.6509 25.824C77.4602 26.0147 77.2256 26.11 76.9469 26.11Z" fill="black"/>
<path d="M82.2054 26.11C81.9268 26.11 81.6921 26.0147 81.5014 25.824C81.3108 25.6333 81.2154 25.3987 81.2154 25.12V10.842C81.2154 10.5633 81.3108 10.3287 81.5014 10.138C81.6921 9.93267 81.9268 9.83 82.2054 9.83C82.4988 9.83 82.7408 9.92533 82.9314 10.116C83.1221 10.3067 83.2174 10.5487 83.2174 10.842V25.12C83.2174 25.3987 83.1148 25.6333 82.9094 25.824C82.7188 26.0147 82.4841 26.11 82.2054 26.11Z" fill="black"/>
<path d="M87.4639 26.11C87.1853 26.11 86.9506 26.0147 86.7599 25.824C86.5693 25.6333 86.4739 25.3987 86.4739 25.12V10.842C86.4739 10.5633 86.5693 10.3287 86.7599 10.138C86.9506 9.93267 87.1853 9.83 87.4639 9.83C87.7573 9.83 87.9993 9.92533 88.1899 10.116C88.3806 10.3067 88.4759 10.5487 88.4759 10.842V25.12C88.4759 25.3987 88.3733 25.6333 88.1679 25.824C87.9773 26.0147 87.7426 26.11 87.4639 26.11Z" fill="black"/>
<path d="M96.7485 26.22C94.9591 26.22 93.5585 25.714 92.5465 24.702C91.5491 23.6753 91.0505 22.238 91.0505 20.39C91.0505 19.3487 91.2411 18.388 91.6225 17.508C92.0038 16.628 92.5905 15.9167 93.3825 15.374C94.1745 14.8313 95.1498 14.56 96.3085 14.56C97.3938 14.56 98.3325 14.8167 99.1245 15.33C99.9165 15.8287 100.518 16.5033 100.928 17.354C101.339 18.19 101.544 19.1067 101.544 20.104C101.544 20.3827 101.449 20.6173 101.258 20.808C101.082 20.9987 100.84 21.094 100.532 21.094H93.0745C93.1918 22.1207 93.5731 22.92 94.2185 23.492C94.8638 24.064 95.7658 24.35 96.9245 24.35C97.5405 24.35 98.0758 24.2913 98.5305 24.174C98.9998 24.0567 99.4545 23.888 99.8945 23.668C100.012 23.6093 100.144 23.58 100.29 23.58C100.525 23.58 100.73 23.6607 100.906 23.822C101.082 23.9833 101.17 24.1887 101.17 24.438C101.17 24.7607 100.98 25.032 100.598 25.252C100.026 25.5747 99.4618 25.8167 98.9045 25.978C98.3471 26.1393 97.6285 26.22 96.7485 26.22ZM99.5645 19.466C99.5205 18.7473 99.3298 18.146 98.9925 17.662C98.6698 17.178 98.2665 16.826 97.7825 16.606C97.2985 16.3713 96.8071 16.254 96.3085 16.254C95.8098 16.254 95.3185 16.3713 94.8345 16.606C94.3505 16.826 93.9471 17.178 93.6245 17.662C93.3018 18.146 93.1185 18.7473 93.0745 19.466H99.5645Z" fill="black"/>
<path d="M114.418 26.11C114.14 26.11 113.905 26.0147 113.714 25.824C113.524 25.6333 113.428 25.3987 113.428 25.12V12.514H108.94C108.676 12.514 108.456 12.426 108.28 12.25C108.104 12.074 108.016 11.854 108.016 11.59C108.016 11.326 108.104 11.106 108.28 10.93C108.456 10.7393 108.676 10.644 108.94 10.644H119.896C120.16 10.644 120.38 10.7393 120.556 10.93C120.747 11.106 120.842 11.326 120.842 11.59C120.842 11.854 120.747 12.074 120.556 12.25C120.38 12.426 120.16 12.514 119.896 12.514H115.43V25.12C115.43 25.3987 115.328 25.6333 115.122 25.824C114.932 26.0147 114.697 26.11 114.418 26.11Z" fill="black"/>
<path d="M126.187 26.22C125.057 26.22 124.067 25.978 123.217 25.494C122.366 25.01 121.706 24.328 121.237 23.448C120.782 22.5533 120.555 21.534 120.555 20.39C120.555 19.246 120.782 18.234 121.237 17.354C121.706 16.4593 122.366 15.77 123.217 15.286C124.067 14.802 125.057 14.56 126.187 14.56C127.301 14.56 128.284 14.802 129.135 15.286C129.985 15.77 130.645 16.4593 131.115 17.354C131.584 18.234 131.819 19.246 131.819 20.39C131.819 21.534 131.584 22.5533 131.115 23.448C130.645 24.328 129.985 25.01 129.135 25.494C128.284 25.978 127.301 26.22 126.187 26.22ZM126.187 24.394C126.788 24.394 127.36 24.2547 127.903 23.976C128.46 23.6973 128.915 23.2573 129.267 22.656C129.633 22.0547 129.817 21.292 129.817 20.368C129.817 19.4587 129.633 18.7033 129.267 18.102C128.915 17.5007 128.46 17.068 127.903 16.804C127.36 16.5253 126.788 16.386 126.187 16.386C125.571 16.386 124.984 16.5253 124.427 16.804C123.884 17.068 123.437 17.5007 123.085 18.102C122.733 18.7033 122.557 19.4587 122.557 20.368C122.557 21.292 122.733 22.0547 123.085 22.656C123.437 23.2573 123.884 23.6973 124.427 23.976C124.984 24.2547 125.571 24.394 126.187 24.394Z" fill="black"/>
<path d="M139.351 26.22C138.222 26.22 137.232 25.978 136.381 25.494C135.531 25.01 134.871 24.328 134.401 23.448C133.947 22.5533 133.719 21.534 133.719 20.39C133.719 19.246 133.947 18.234 134.401 17.354C134.871 16.4593 135.531 15.77 136.381 15.286C137.232 14.802 138.222 14.56 139.351 14.56C140.466 14.56 141.449 14.802 142.299 15.286C143.15 15.77 143.81 16.4593 144.279 17.354C144.749 18.234 144.983 19.246 144.983 20.39C144.983 21.534 144.749 22.5533 144.279 23.448C143.81 24.328 143.15 25.01 142.299 25.494C141.449 25.978 140.466 26.22 139.351 26.22ZM139.351 24.394C139.953 24.394 140.525 24.2547 141.067 23.976C141.625 23.6973 142.079 23.2573 142.431 22.656C142.798 22.0547 142.981 21.292 142.981 20.368C142.981 19.4587 142.798 18.7033 142.431 18.102C142.079 17.5007 141.625 17.068 141.067 16.804C140.525 16.5253 139.953 16.386 139.351 16.386C138.735 16.386 138.149 16.5253 137.591 16.804C137.049 17.068 136.601 17.5007 136.249 18.102C135.897 18.7033 135.721 19.4587 135.721 20.368C135.721 21.292 135.897 22.0547 136.249 22.656C136.601 23.2573 137.049 23.6973 137.591 23.976C138.149 24.2547 138.735 24.394 139.351 24.394Z" fill="black"/>
<path d="M148.556 26.11C148.277 26.11 148.043 26.0147 147.852 25.824C147.661 25.6333 147.566 25.3987 147.566 25.12V10.842C147.566 10.5633 147.661 10.3287 147.852 10.138C148.043 9.93267 148.277 9.83 148.556 9.83C148.849 9.83 149.091 9.92533 149.282 10.116C149.473 10.3067 149.568 10.5487 149.568 10.842V25.12C149.568 25.3987 149.465 25.6333 149.26 25.824C149.069 26.0147 148.835 26.11 148.556 26.11Z" fill="black"/>
<path d="M158.589 26.22C157.151 26.22 155.897 25.6627 154.827 24.548V25.12C154.827 25.3987 154.724 25.6333 154.519 25.824C154.328 26.0147 154.093 26.11 153.815 26.11C153.536 26.11 153.301 26.0147 153.111 25.824C152.92 25.6333 152.825 25.3987 152.825 25.12V10.842C152.825 10.5633 152.92 10.3287 153.111 10.138C153.301 9.93267 153.536 9.83 153.815 9.83C154.108 9.83 154.35 9.92533 154.541 10.116C154.731 10.3067 154.827 10.5487 154.827 10.842V16.232C155.897 15.1173 157.151 14.56 158.589 14.56C159.498 14.56 160.356 14.7947 161.163 15.264C161.984 15.7187 162.644 16.3933 163.143 17.288C163.656 18.168 163.913 19.202 163.913 20.39C163.913 21.578 163.656 22.6193 163.143 23.514C162.644 24.394 161.984 25.0687 161.163 25.538C160.356 25.9927 159.498 26.22 158.589 26.22ZM158.303 24.35C159.388 24.35 160.261 24.0053 160.921 23.316C161.581 22.6267 161.911 21.6513 161.911 20.39C161.911 19.1287 161.581 18.1533 160.921 17.464C160.261 16.7747 159.388 16.43 158.303 16.43C157.628 16.43 156.99 16.584 156.389 16.892C155.802 17.1853 155.281 17.5813 154.827 18.08V22.7C155.281 23.1987 155.802 23.602 156.389 23.91C156.99 24.2033 157.628 24.35 158.303 24.35Z" fill="black"/>
<path d="M171.433 26.22C170.304 26.22 169.314 25.978 168.463 25.494C167.613 25.01 166.953 24.328 166.483 23.448C166.029 22.5533 165.801 21.534 165.801 20.39C165.801 19.246 166.029 18.234 166.483 17.354C166.953 16.4593 167.613 15.77 168.463 15.286C169.314 14.802 170.304 14.56 171.433 14.56C172.548 14.56 173.531 14.802 174.381 15.286C175.232 15.77 175.892 16.4593 176.361 17.354C176.831 18.234 177.065 19.246 177.065 20.39C177.065 21.534 176.831 22.5533 176.361 23.448C175.892 24.328 175.232 25.01 174.381 25.494C173.531 25.978 172.548 26.22 171.433 26.22ZM171.433 24.394C172.035 24.394 172.607 24.2547 173.149 23.976C173.707 23.6973 174.161 23.2573 174.513 22.656C174.88 22.0547 175.063 21.292 175.063 20.368C175.063 19.4587 174.88 18.7033 174.513 18.102C174.161 17.5007 173.707 17.068 173.149 16.804C172.607 16.5253 172.035 16.386 171.433 16.386C170.817 16.386 170.231 16.5253 169.673 16.804C169.131 17.068 168.683 17.5007 168.331 18.102C167.979 18.7033 167.803 19.4587 167.803 20.368C167.803 21.292 167.979 22.0547 168.331 22.656C168.683 23.2573 169.131 23.6973 169.673 23.976C170.231 24.2547 170.817 24.394 171.433 24.394Z" fill="black"/>
<path d="M179.699 26.11C179.406 26.11 179.171 26.022 178.995 25.846C178.834 25.6553 178.753 25.406 178.753 25.098C178.753 24.878 178.826 24.6727 178.973 24.482L182.383 20.456L178.973 16.298C178.812 16.0927 178.731 15.88 178.731 15.66C178.731 15.3667 178.826 15.132 179.017 14.956C179.208 14.7653 179.442 14.67 179.721 14.67C180.073 14.67 180.337 14.7947 180.513 15.044L183.593 18.85L186.651 15.044C186.827 14.7947 187.084 14.67 187.421 14.67C187.714 14.67 187.956 14.7653 188.147 14.956C188.338 15.132 188.433 15.352 188.433 15.616C188.433 15.836 188.36 16.0413 188.213 16.232L184.737 20.324L188.169 24.46C188.33 24.636 188.411 24.8487 188.411 25.098C188.411 25.3767 188.323 25.6187 188.147 25.824C187.971 26.0147 187.722 26.11 187.399 26.11C187.076 26.11 186.82 25.978 186.629 25.714L183.505 21.974L180.557 25.67C180.337 25.9633 180.051 26.11 179.699 26.11Z" fill="black"/>
<path d="M18 33H4V18L18 33Z" fill="#78BDDF"/>
<path d="M18 33L32 18V33H18Z" fill="#EAB147"/>
<path d="M32 4V18L18 4H32Z" fill="#D15486"/>
<path d="M4 18L18 4H4V18Z" fill="#7558A6"/>
</svg>
